<svg xmlns="http://www.w3.org/2000/svg" width="512" height="512" viewBox="0 0 512 512" role="img" aria-label="Tiny Signal Club"><rect width="512" height="512" rx="160" fill="#0b1026"/><path fill="#5de4e7" d="M108 96h296a40 40 0 0 1 40 40v208a40 40 0 0 1-40 40H266l-86 58v-58h-72a40 40 0 0 1-40-40V136a40 40 0 0 1 40-40Z"/><g fill="none" stroke="#0b1026" stroke-linecap="round" stroke-width="34"><path d="M157 222a140 140 0 0 1 198 0"/><path d="M198 266a82 82 0 0 1 116 0"/></g><circle cx="256" cy="320" r="34" fill="#ff7b72"/></svg>
